<svg width="68" height="48" viewBox="0 0 68 48" fill="none" xmlns="http://www.w3.org/2000/svg">
<path d="M11.5562 27.3867L12.7374 30.7181L13.9123 27.3867H15.1564V31.9799H14.2057V30.7243L14.3001 28.5567L13.0585 31.9799H12.4075L11.1696 28.5605L11.2641 30.7243V31.9799H10.3171V27.3867H11.555H11.5562Z" fill="#CBD5E1"/>
<path d="M20.4529 29.7884C20.4529 30.24 20.3723 30.6376 20.2124 30.9785C20.0524 31.3194 19.8233 31.5824 19.5261 31.7673C19.2276 31.9522 18.8864 32.0453 18.501 32.0453C18.1157 32.0453 17.7795 31.9535 17.481 31.7711C17.1826 31.5887 16.9509 31.327 16.7859 30.9873C16.6222 30.6476 16.5391 30.2564 16.5366 29.8148V29.5871C16.5366 29.1354 16.6184 28.7366 16.7809 28.3932C16.9446 28.0497 17.175 27.7855 17.4722 27.6019C17.7694 27.4182 18.1107 27.3264 18.4935 27.3264C18.8763 27.3264 19.2176 27.4182 19.5147 27.6019C19.8132 27.7855 20.0436 28.0497 20.2061 28.3932C20.3698 28.7366 20.4504 29.1342 20.4504 29.5846V29.7896L20.4529 29.7884ZM19.4933 29.5795C19.4933 29.0977 19.4064 28.7316 19.2339 28.4813C19.0614 28.2309 18.8146 28.1064 18.4947 28.1064C18.1749 28.1064 17.9318 28.2296 17.7593 28.4775C17.5868 28.7241 17.4987 29.0864 17.4974 29.5644V29.7884C17.4974 30.2576 17.5843 30.6212 17.7568 30.8804C17.9293 31.1395 18.1774 31.2679 18.5023 31.2679C18.8272 31.2679 19.0639 31.1433 19.2352 30.8942C19.4052 30.6451 19.4921 30.2815 19.4946 29.8047V29.5808L19.4933 29.5795Z" fill="#CBD5E1"/>
<path d="M21.8343 31.9812V27.388H23.4449C24.0027 27.388 24.4258 27.4949 24.7142 27.7088C25.0026 27.9227 25.1474 28.2347 25.1474 28.6473C25.1474 28.8725 25.0895 29.07 24.9736 29.2424C24.8578 29.4135 24.6966 29.5393 24.4901 29.6198C24.7255 29.6789 24.9119 29.7972 25.0479 29.9758C25.1839 30.1545 25.2519 30.3734 25.2519 30.6325C25.2519 31.0741 25.1109 31.4088 24.8288 31.6352C24.5467 31.8629 24.145 31.9787 23.6224 31.9824H21.8355L21.8343 31.9812ZM22.7813 29.3116H23.4827C23.9599 29.3028 24.1992 29.1128 24.1992 28.7404C24.1992 28.5316 24.1387 28.3819 24.0178 28.2913C23.897 28.1994 23.7055 28.1542 23.4449 28.1542H22.7813V29.3116ZM22.7813 29.9809V31.2213H23.5935C23.8164 31.2213 23.9914 31.1685 24.1161 31.0615C24.2407 30.9559 24.3037 30.8087 24.3037 30.6212C24.3037 30.201 24.0858 29.9872 23.6501 29.9809H22.7813Z" fill="#CBD5E1"/>
<path d="M27.6609 31.9812H26.7139V27.388H27.6609V31.9812Z" fill="#CBD5E1"/>
<path d="M30.1781 31.22H32.1904V31.9799H29.2312V27.3867H30.1781V31.22Z" fill="#CBD5E1"/>
<path d="M35.8096 30.7759C35.8096 30.5973 35.7466 30.4602 35.6207 30.3645C35.4947 30.2689 35.2668 30.1683 34.9381 30.0614C34.6095 29.9557 34.3501 29.85 34.1587 29.7468C33.6361 29.465 33.3754 29.0851 33.3754 28.6083C33.3754 28.3605 33.4459 28.139 33.5857 27.944C33.7255 27.749 33.927 27.5981 34.1889 27.4886C34.4508 27.3792 34.7455 27.3251 35.0716 27.3251C35.3978 27.3251 35.6924 27.3842 35.9493 27.5037C36.2062 27.6232 36.4052 27.7906 36.5475 28.0069C36.6898 28.2233 36.7603 28.4699 36.7603 28.7454H35.8133C35.8133 28.5353 35.7466 28.3718 35.6144 28.2548C35.4821 28.1378 35.2958 28.0799 35.0553 28.0799C34.8147 28.0799 34.6435 28.129 34.515 28.2271C34.3866 28.3252 34.3224 28.4536 34.3224 28.6133C34.3224 28.763 34.3979 28.8876 34.5478 28.9882C34.6976 29.0889 34.9193 29.1845 35.2127 29.2725C35.7516 29.4348 36.1445 29.6349 36.3901 29.8752C36.6369 30.1154 36.759 30.4136 36.759 30.7709C36.759 31.1684 36.6079 31.4804 36.307 31.7069C36.006 31.9333 35.6005 32.0466 35.0905 32.0466C34.7367 32.0466 34.4143 31.9824 34.1247 31.8528C33.835 31.7232 33.6121 31.5459 33.4598 31.3207C33.3074 31.0955 33.2306 30.8351 33.2306 30.5382H34.1813C34.1813 31.0452 34.4848 31.298 35.0905 31.298C35.3159 31.298 35.4922 31.2527 35.6181 31.1609C35.7441 31.0691 35.807 30.942 35.807 30.7772L35.8096 30.7759Z" fill="#CBD5E1"/>
<path d="M41.8704 29.7884C41.8704 30.24 41.7898 30.6376 41.6298 30.9785C41.4699 31.3194 41.2407 31.5824 40.9436 31.7673C40.6451 31.9522 40.3038 32.0453 39.9185 32.0453C39.5332 32.0453 39.197 31.9535 38.8985 31.7711C38.6001 31.5887 38.3684 31.327 38.2034 30.9873C38.0397 30.6476 37.9566 30.2564 37.9541 29.8148V29.5871C37.9541 29.1354 38.0359 28.7366 38.1984 28.3932C38.3608 28.0497 38.5925 27.7855 38.8897 27.6019C39.1881 27.4182 39.5281 27.3264 39.911 27.3264C40.2938 27.3264 40.635 27.4182 40.9322 27.6019C41.2307 27.7855 41.4611 28.0497 41.6236 28.3932C41.786 28.7366 41.8679 29.1342 41.8679 29.5846V29.7896L41.8704 29.7884ZM40.9108 29.5795C40.9108 29.0977 40.8239 28.7316 40.6514 28.4813C40.4789 28.2309 40.2321 28.1064 39.9122 28.1064C39.5924 28.1064 39.3493 28.2296 39.1768 28.4775C39.0043 28.7241 38.9161 29.0864 38.9149 29.5644V29.7884C38.9149 30.2576 39.0018 30.6212 39.1743 30.8804C39.3468 31.1395 39.5949 31.2679 39.9198 31.2679C40.2447 31.2679 40.4814 31.1433 40.6527 30.8942C40.8227 30.6451 40.9096 30.2815 40.9121 29.8047V29.5808L40.9108 29.5795Z" fill="#CBD5E1"/>
<path d="M46.0171 30.1042H44.1987V31.9812H43.2518V27.388H46.245V28.1542H44.1987V29.3405H46.0171V30.1042Z" fill="#CBD5E1"/>
<path d="M51.0101 28.1542H49.6022V31.9812H48.6553V28.1542H47.265V27.388H51.0101V28.1542Z" fill="#CBD5E1"/>
<path d="M55.3595 31.22H57.6778V31.9799H54.1758V31.4251L56.4501 28.1529H54.1796V27.3867H57.6287V27.9289L55.3608 31.22H55.3595Z" fill="#CBD5E1"/>
<path d="M60.6686 30.2991H59.9143V31.9812H58.9673V27.388H60.6761C61.2189 27.388 61.6382 27.5088 61.9329 27.7503C62.2276 27.9919 62.3749 28.3341 62.3749 28.7756C62.3749 29.0889 62.3069 29.3506 62.1709 29.5594C62.0349 29.7683 61.8296 29.9356 61.5539 30.0601L62.5487 31.9371V31.9812H61.5312L60.6686 30.2991ZM59.9143 29.533H60.6787C60.9167 29.533 61.1005 29.4726 61.2315 29.3518C61.3624 29.2311 61.4267 29.0637 61.4267 28.8524C61.4267 28.641 61.365 28.4649 61.2416 28.3416C61.1181 28.2171 60.9293 28.1554 60.6749 28.1554H59.9143V29.5342V29.533Z" fill="#CBD5E1"/>
<path d="M67.0896 28.1542H65.6817V31.9812H64.7347V28.1542H63.3445V27.388H67.0896V28.1542Z" fill="#CBD5E1"/>
<path d="M14.6842 23.6666V17.6191H25.8929V15.9019H14.5016C14.2838 15.9019 14.0861 15.9648 13.9438 16.1082C13.8015 16.2503 13.7121 16.4479 13.7121 16.6655V24.6039C13.7121 24.8215 13.8002 25.019 13.9438 25.1612C14.0861 25.3033 14.2838 25.3826 14.5016 25.3826H25.8929V23.6653H14.6842V23.6666Z" fill="#CBD5E1"/>
<path d="M39.4929 15.9031H27.3876V17.6204H39.4929V15.9031Z" fill="#CBD5E1"/>
<path d="M39.4929 19.8597H27.3876V21.6512H39.4929V19.8597Z" fill="#CBD5E1"/>
<path d="M39.4929 23.6666H27.3876V25.3839H39.4929V23.6666Z" fill="#CBD5E1"/>
<path d="M42.1096 23.6666V15.9031H41.1387V24.6051C41.1387 24.8228 41.2269 25.0203 41.3692 25.1625C41.5115 25.3046 41.7092 25.3839 41.927 25.3839H53.3183V23.6666H42.1096Z" fill="#CBD5E1"/>
<path d="M55.9338 23.6666V15.9031H54.8873L54.9465 24.6051C54.9465 24.8228 55.0347 25.0203 55.1782 25.1625C55.3205 25.3046 55.5182 25.3839 55.7361 25.3839H67.1424V23.6666H55.9338Z" fill="#CBD5E1"/>
<path d="M11.4719 18.5161H10.3511V25.3839H11.4719V18.5161Z" fill="#CBD5E1"/>
<path d="M11.3258 16.0529C11.5587 16.2856 11.5587 16.6643 11.3258 16.897C11.0928 17.1298 10.7138 17.1298 10.4808 16.897C10.2479 16.6643 10.2479 16.2856 10.4808 16.0529C10.7138 15.8201 11.0928 15.8201 11.3258 16.0529Z" fill="#CBD5E1"/>
<path d="M42.9911 35.9704C39.0144 42.2469 32.0079 46.4161 24.0216 46.4161C11.6293 46.4161 1.58415 36.3793 1.58415 24C1.58415 11.6207 11.6305 1.58264 24.0229 1.58264C32.0079 1.58264 39.0156 5.75185 42.9924 12.0283H44.8447C40.6955 4.83976 32.9259 0 24.0229 0C10.7553 0 0 10.7451 0 24C0 37.2549 10.7553 48 24.0229 48C32.9259 48 40.6955 43.1602 44.8447 35.9717H42.9924L42.9911 35.9704Z" fill="#CBD5E1"/>
<path d="M67.8741 31.2502C68.0416 31.4175 68.0416 31.6892 67.8741 31.8566C67.7066 32.0239 67.4346 32.0239 67.2671 31.8566C67.0996 31.6892 67.0996 31.4175 67.2671 31.2502C67.4346 31.0829 67.7066 31.0829 67.8741 31.2502Z" fill="#CBD5E1"/>
</svg>
